<svg width="296" height="259" viewBox="0 0 296 259" fill="none" xmlns="http://www.w3.org/2000/svg">
<path d="M262.014 171.829C263.958 176.042 259.839 182.654 259.839 182.654C258.64 180.138 256.373 178.091 253.483 176.915C255.961 183.006 245.824 197.42 245.824 197.42C245.589 194.416 235.923 185.074 235.923 185.074C230.104 198.473 221.45 198.477 221.45 198.477C220.449 197.306 219.72 195.984 219.301 194.583C217.097 198.735 207.255 199.734 207.255 199.734C205.19 204.403 186.928 213.381 186.928 213.381C192.931 206.794 198.673 187.964 198.673 187.964C197.66 188.546 196.513 188.938 195.307 189.114C197.771 184.86 194.94 174.654 194.94 174.654C193.599 180.424 168.258 192.447 168.258 192.447C170.079 185.554 170.473 178.446 169.422 171.439C169.085 173.536 161.186 177.964 161.186 177.964C162.012 176.421 159.161 173.344 159.161 173.344C158.737 176.871 145.227 182.71 145.227 182.71C146.044 179.314 145.962 175.806 144.986 172.44C138.724 175.281 132.214 177.711 125.513 179.709C128.65 177.851 128.143 171.976 128.143 171.976C123.357 173.067 118.414 173.585 113.458 173.516C107.605 172.923 88.2804 179.656 88.2804 179.656C88.2804 179.656 97.3297 163.645 97.1346 158.778C97.3763 154.591 98.3103 150.453 99.9092 146.484C99.9092 146.484 92.9122 145.751 90.6141 148.2C93.409 142.675 96.7005 137.339 100.46 132.239C96.5519 131.196 92.4194 130.897 88.3589 131.365C88.3589 131.365 96.1296 120.343 100.318 120.216C100.318 120.216 96.9357 117.664 94.9988 118.205C94.9988 118.205 100.738 111.827 103.234 111.68C95.0364 110.336 86.6248 110.204 78.3734 111.292C78.3734 111.292 94.2106 90.6878 101.105 89.9324C101.105 89.9324 89.2485 86.8779 84.0694 88.6799C84.3555 87.6735 84.8927 86.7305 85.6453 85.9143C85.6453 85.9143 63.0561 89.5324 54.8935 94.1692C54.8935 94.1692 66.8298 79.4807 72.3503 77.9312C72.3503 77.9312 74.1389 69.6616 79.182 68.0719C77.5561 67.6267 76.0446 66.9254 74.7273 66.0046C74.7273 66.0046 75.2969 58.7007 91.5145 54.691C91.5145 54.691 81.093 45.8958 77.5636 45.5015C77.5636 45.5015 95.23 37.8853 102.255 40.3747C101.056 37.8582 98.7893 35.8113 95.8985 34.6356C95.8985 34.6356 103.968 31.5898 108.811 33.5059C108.811 33.5059 98.968 24.6187 98.9923 21.5133C98.9923 21.5133 108.835 20.515 112.501 23.1549C114.303 24.447 123.525 19.6504 127.025 21.6375C125.805 19.4775 124.165 17.5059 122.173 15.8047C122.173 15.8047 126.618 13.1722 135.089 17.0789C135.089 17.0789 143.199 7.20082 148.14 8.25527C148.14 8.25527 148.459 7.42684 146.108 5.47139C146.108 5.47139 153.077 3.6107 157.365 5.86259C157.365 5.86259 154.279 3.07665 152.675 1.62795C152.675 1.62795 163.455 1.14162 167.737 3.55539C167.737 3.55539 167.816 1.50487 166.532 0.848288C168.688 0.801941 170.796 1.38464 172.504 2.49839C172.504 2.49839 171.351 -5.69023 172.595 -7.30354C177.982 -6.19581 183.029 -4.13261 187.402 -1.2506C187.457 -2.26027 187.301 -3.27029 186.943 -4.2344C190.141 -3.24681 192.834 -1.34861 194.559 1.13443C194.291 -1.08342 194.281 -3.3182 194.529 -5.53773C198.644 -4.62132 202.268 -2.55029 204.808 0.336315C206.498 0.503889 208.112 1.02154 209.508 1.84331C209.726 0.826528 209.577 -0.222067 209.081 -1.16645C211.971 0.28624 214.314 2.40173 215.839 4.93482C215.839 4.93482 226.12 10.7549 226.95 14.073C226.95 14.073 233.413 9.6325 241.662 40.7586C243.083 46.1187 243.574 47.4557 245.132 55.0613C254.105 56.74 255.619 57.2139 261.749 58.8953C297.933 67.8871 292.304 73.0798 292.304 73.0798C296.134 73.9686 302.33 83.0255 302.33 83.0255C305.209 84.4679 307.542 86.5747 309.056 89.0989C307.974 88.6483 306.764 88.4652 305.564 88.5705C306.443 89.8024 306.948 91.1986 307.036 92.6354C310.27 94.9717 312.476 98.164 313.296 101.694C310.661 101.759 308.025 101.605 305.426 101.234C308.243 102.852 310.307 105.248 311.263 108.012C310.149 107.647 308.968 107.45 307.773 107.43C310.888 111.309 312.993 115.703 313.949 120.322C311.964 121.266 302.379 119.76 302.379 119.76C303.581 121.273 304.131 123.091 303.936 124.907C303.245 123.781 300.821 123.714 300.821 123.714C303.389 127.485 302.113 136.552 302.113 136.552C300.477 135.076 297.453 132.345 297.453 132.345C299.8 136.083 297.15 141.845 297.15 141.845C294.898 139.811 293.998 139.948 293.998 139.948C294.92 144.187 282.737 150.387 282.737 150.387C286.701 157.708 283.429 161.399 283.429 161.399C281.544 159.596 279.315 158.074 276.833 156.896C278.919 159.952 272.689 167.451 274.096 169.056C276.971 172.322 275.152 180.564 275.152 180.564C272.019 180.64 262.014 171.829 262.014 171.829Z" fill="#D17204" fill-opacity="0.5"/>
<path d="M95.8513 173.814C95.8513 173.814 147.097 134.36 198.248 94.8774C211.083 85.0214 223.854 75.1637 235.868 65.9063C241.765 61.2341 247.746 56.8612 253.031 52.3072C258.316 47.7532 263.299 43.596 267.736 39.5048C275.104 32.9894 281.788 25.9437 287.71 18.4475C289.453 16.1818 290.936 13.7808 292.139 11.2771C292.526 10.3424 292.811 9.59384 292.959 9.05775L293.182 8.25362L285.722 7.10274C285.722 7.10274 285.633 7.74865 285.036 9.16369C284.087 11.2988 282.907 13.3549 281.509 15.3056C276.024 22.6236 269.817 29.5364 262.955 35.9699C258.709 40.0664 253.875 44.5248 248.851 48.9239C243.827 53.3231 238.093 57.9188 232.223 62.7269C220.518 72.2628 208.055 82.399 195.59 92.5893C145.801 133.19 95.8513 173.814 95.8513 173.814Z" fill="#704021" fill-opacity="0.5"/>
<path d="M172.934 111.169C172.934 111.169 172.899 112.087 172.744 113.622C172.589 115.157 172.408 117.34 172.018 120.003C171.628 122.666 171.062 125.73 170.519 129.037L169.269 134.107C168.789 135.796 168.496 137.597 167.888 139.282L166.156 144.42C165.682 146.096 165.064 147.74 164.306 149.339L162.342 153.877C161.84 155.225 161.234 156.543 160.529 157.824L155.843 165.879C155.843 165.879 157.913 162.722 161.064 158.028C161.906 156.761 162.64 155.446 163.26 154.091L165.54 149.616C166.406 148.034 167.141 146.402 167.741 144.734L169.789 139.659C170.558 137.951 170.946 136.179 171.556 134.441C172.166 132.702 172.613 131.04 173.155 129.407C173.923 126.079 174.748 122.914 175.393 120.258C176.039 117.602 176.219 115.419 176.572 113.727C176.925 112.035 176.892 111.224 176.892 111.224L172.934 111.169Z" fill="#704021" fill-opacity="0.5"/>
<path d="M211.252 80.6512C211.252 80.6512 210.054 87.6678 207.701 98.1636C206.508 103.398 205.028 109.488 203.244 115.975C201.46 122.462 199.533 129.378 197.16 136.227C196.101 139.682 194.788 143.076 193.605 146.419C192.422 149.763 190.988 152.991 189.747 156.171C188.506 159.351 186.955 162.307 185.663 165.161C184.371 168.016 182.835 170.593 181.59 173.044C180.346 175.494 178.828 177.586 177.666 179.553C176.657 181.217 175.529 182.828 174.287 184.376C172.301 186.995 171.189 188.504 171.189 188.504C171.189 188.504 172.396 187.024 174.443 184.461C175.757 182.938 176.939 181.336 177.981 179.67C179.205 177.759 180.784 175.722 182.092 173.274C183.401 170.825 185.096 168.279 186.482 165.454C187.869 162.629 189.484 159.675 190.819 156.525C192.154 153.375 193.747 150.177 195.058 146.837C196.368 143.497 197.775 140.133 198.963 136.681C201.524 129.892 203.738 123.011 205.746 116.503C207.754 109.995 209.457 103.938 210.777 98.7075C213.512 88.2761 214.966 81.2128 214.966 81.2128L211.252 80.6512Z" fill="#704021" fill-opacity="0.5"/>
<path d="M237.435 60.0623C237.435 60.0623 237.002 69.6117 235.363 83.9356C234.544 91.0705 233.391 99.4117 231.93 108.312C231.118 112.773 230.462 117.373 229.42 122.017C228.378 126.661 227.46 131.417 226.387 136.033L224.646 143.061L222.593 149.919C221.428 154.452 219.785 158.944 218.277 163.278C216.768 167.612 215.113 171.591 213.393 175.622L212.195 178.506L210.846 181.197C209.946 183.008 209.049 184.712 208.219 186.364C206.664 189.359 204.931 192.287 203.026 195.134C202.178 196.434 201.397 197.628 200.781 198.691C200.165 199.755 199.14 200.672 198.405 201.516L193.948 206.93C193.948 206.93 195.587 205.004 198.561 201.601L200.968 198.805C201.714 197.691 202.495 196.497 203.275 195.303C205.288 192.491 207.106 189.583 208.721 186.594L211.473 181.484L212.92 178.769L214.211 175.914C215.963 171.911 217.714 167.908 219.25 163.71C220.785 159.512 222.558 154.969 223.916 150.388C224.644 148.085 225.372 145.782 226.068 143.451L228.001 136.428C229.33 131.765 230.376 127.013 231.482 122.371C232.587 117.729 233.504 113.028 234.344 108.648C236.027 99.7814 237.405 91.4194 238.287 84.2862C240.278 69.945 241.002 60.3225 241.002 60.3225L237.435 60.0623Z" fill="#704021" fill-opacity="0.5"/>
<path d="M235.432 80.534C235.432 80.534 238.716 85.6212 243.198 93.5775C245.44 97.5556 247.975 102.19 250.557 107.258C253.14 112.326 255.872 117.641 258.018 123.264C259.253 125.999 260.359 128.784 261.403 131.514C262.447 134.244 263.361 137.024 264.28 139.696C265.198 142.369 265.833 144.952 266.571 147.349C267.308 149.746 267.63 152.159 268.121 154.333C268.612 156.508 268.693 158.535 268.976 160.299C269.193 161.833 269.272 163.379 269.212 164.924L269.216 168.949L269.404 164.929C269.493 163.38 269.468 161.828 269.328 160.282C269.109 158.52 269.157 156.441 268.796 154.217C268.435 151.992 268.049 149.578 267.503 147.186C266.957 144.794 266.392 142.05 265.538 139.38C264.683 136.709 263.993 133.908 262.858 131.041C261.724 128.174 260.968 125.425 259.765 122.664C253.872 107.707 246.82 93.0943 238.656 78.9212L235.432 80.534Z" fill="#704021" fill-opacity="0.5"/>
<path d="M243.71 56.3454C243.71 56.3454 247.651 60.9644 252.924 68.2943C255.528 71.9853 258.555 76.2822 261.533 81.0369C264.51 85.7915 267.57 90.8996 270.403 96.0825C271.707 98.7113 273.105 101.37 274.314 103.969C275.523 106.568 276.795 109.169 277.751 111.707C278.706 114.246 279.794 116.679 280.531 119.076C281.269 121.474 282.077 123.711 282.636 125.779L284.009 131.543C284.486 133.257 284.586 134.8 284.888 136.078L285.47 140.01L285.048 136.055C284.872 134.835 284.805 133.266 284.456 131.555L283.276 125.742C282.783 123.622 282.133 121.417 281.431 118.939C280.728 116.462 279.799 114.06 278.943 111.443C278.086 108.827 276.877 106.227 275.769 103.496C274.661 100.764 273.325 98.1617 272.12 95.4546C269.482 90.1691 266.651 84.9322 263.838 80.0471C261.025 75.1619 258.163 70.7345 255.592 67.0174C250.583 59.4787 246.747 54.6192 246.747 54.6192L243.71 56.3454Z" fill="#704021" fill-opacity="0.5"/>
<path d="M229.77 122.836C229.77 122.836 231.682 126.238 234.127 131.572C237.128 138.05 239.623 144.687 241.597 151.441C242.134 153.266 242.54 155.14 242.98 156.989C243.419 158.838 243.636 160.654 243.952 162.391C244.268 164.128 244.36 165.886 244.553 167.512C244.745 169.138 244.557 170.699 244.567 172.104C244.576 173.509 244.302 174.825 244.225 175.984C244.135 176.973 243.937 177.953 243.633 178.912L242.959 181.486L243.728 178.942C244.037 177.972 244.267 176.986 244.416 175.99C244.524 174.858 244.799 173.542 244.886 172.113C244.973 170.684 245.001 169.145 244.969 167.497C244.936 165.848 244.812 164.116 244.716 162.466C244.62 160.816 244.281 158.835 243.842 156.986C243.402 155.137 243.156 153.24 242.622 151.362C240.005 141.4 236.32 131.661 231.613 122.266L229.77 122.836Z" fill="#704021" fill-opacity="0.5"/>
<path d="M266.589 88.1715C266.589 88.1715 267.382 88.3283 268.676 88.7151C269.484 88.9347 270.274 89.2001 271.04 89.5095C272.065 89.8712 273.062 90.2866 274.026 90.7531L277.507 92.3887L281.285 94.6265C282.576 95.3251 283.815 96.0899 284.996 96.9165L288.823 99.5339C291.405 101.307 293.688 103.368 295.982 105.16C297.075 106.036 298.105 106.967 299.068 107.946L301.845 110.453L307.522 115.58L302.141 110.218L299.364 107.711C298.408 106.847 297.358 105.9 296.279 104.925C294.149 103.003 291.866 100.941 289.352 99.0622L285.595 96.2847C284.39 95.3765 283.122 94.5299 281.797 93.7493L278.119 91.4332L274.611 89.6619C273.635 89.1352 272.618 88.665 271.568 88.2546C270.623 87.9044 269.839 87.5318 269.113 87.3228C268.375 87.0697 267.614 86.868 266.837 86.7197L266.589 88.1715Z" fill="#704021" fill-opacity="0.5"/>
<path d="M248.599 59.5866C248.692 59.4685 248.816 59.3702 248.962 59.2995C249.629 59.1484 250.323 59.0943 251.012 59.1398C252.195 59.2223 253.358 59.4453 254.467 59.8022C255.995 60.2898 257.487 60.854 258.936 61.4919C260.44 62.2356 262.169 62.9586 263.823 63.9495C265.613 64.9102 267.342 65.9494 269.003 67.0631C272.723 69.4123 276.293 71.927 279.697 74.5964C283.3 77.2345 286.638 80.0815 289.858 82.7091C293.077 85.3367 295.916 87.8998 298.354 90.1007L306.469 97.4278L298.65 89.8658L290.288 82.3159C287.202 79.5299 284.117 76.744 280.358 74.0205C277.001 71.252 273.478 68.6307 269.804 66.167C268.062 64.9846 266.192 63.7987 264.597 62.9174C263.003 61.9726 261.353 61.0976 259.653 60.2962C258.209 59.651 256.715 59.0866 255.184 58.6066C253.949 58.1801 252.647 57.9076 251.319 57.7979C250.409 57.6819 249.479 57.7394 248.598 57.9661C248.3 58.028 248.016 58.1295 247.756 58.267C247.684 58.313 247.618 58.3655 247.559 58.4236L248.599 59.5866Z" fill="#704021" fill-opacity="0.5"/>
<path d="M174.689 109.57C174.689 109.57 173.635 109.568 171.746 109.705C169.856 109.842 167.138 109.957 163.964 110.274C160.79 110.592 157.069 111.03 152.994 111.539L146.951 112.56C144.86 112.962 142.744 113.174 140.679 113.711L134.558 115.109C132.551 115.507 130.578 116.021 128.655 116.648L123.227 118.281C121.588 118.716 119.988 119.25 118.439 119.878C112.696 122.231 108.836 123.772 108.836 123.772C108.836 123.772 112.784 122.423 118.644 120.343C120.201 119.83 121.797 119.405 123.42 119.07L128.901 117.708C130.837 117.173 132.817 116.758 134.825 116.467C136.852 116.064 138.941 115.716 140.999 115.341C143.058 114.965 145.172 114.807 147.195 114.512L153.258 113.788C157.195 113.545 160.758 113.076 164.014 113.112C167.27 113.147 169.869 112.814 171.59 112.915C173.31 113.017 174.496 112.914 174.496 112.914L174.689 109.57Z" fill="#704021" fill-opacity="0.5"/>
<path d="M212.809 79.2081C212.809 79.2081 204.381 79.9752 191.895 81.6029C185.606 82.4019 178.315 83.4706 170.572 84.6887C162.829 85.9069 154.502 87.3791 146.293 89.0706C142.175 89.8754 138.113 90.8439 134.087 91.7323C130.061 92.6207 126.188 93.7024 122.382 94.6779C118.576 95.6534 115.019 96.7978 111.719 97.8953C108.42 98.9928 105.184 100.092 102.207 101.09C99.231 102.089 96.7277 103.235 94.3934 104.143C92.3692 104.931 90.4043 105.824 88.5101 106.817C85.3522 108.378 83.5283 109.3 83.5283 109.3C83.5283 109.3 85.381 108.46 88.6006 106.955C90.5091 106.002 92.4942 105.163 94.5413 104.445C96.9065 103.564 99.4735 102.42 102.446 101.529C105.418 100.639 108.559 99.5099 112.011 98.6056C115.463 97.7014 119.082 96.6126 122.883 95.7451C126.685 94.8775 130.618 93.9055 134.64 93.125C138.662 92.3445 142.752 91.4578 146.897 90.7887C155.1 89.2591 163.479 88.1125 171.187 86.9744C178.895 85.8363 186.238 85.0393 192.491 84.3743C205.027 83.0722 213.383 82.519 213.383 82.519L212.809 79.2081Z" fill="#704021" fill-opacity="0.5"/>
<path d="M239.222 58.4363C239.222 58.4363 227.791 58.3914 210.773 59.1649C202.233 59.4969 192.278 60.1139 181.743 60.8769C176.453 61.4064 170.915 61.7671 165.397 62.4254C159.879 63.0836 154.272 63.5503 148.585 64.4469L140.143 65.5918L131.819 66.9561C126.457 67.6997 120.98 68.9532 115.798 70.0258C110.615 71.0984 105.71 72.4218 101.07 73.4824L97.6185 74.3867L94.3211 75.4302C92.1556 76.0998 90.0847 76.7991 88.1128 77.42C84.4804 78.588 80.9311 79.9331 77.4829 81.4487C75.9246 82.108 74.4651 82.689 73.2012 83.1673L69.7448 85.0166C65.537 87.3045 63.1572 88.5625 63.1572 88.5625L69.8353 85.1542C70.879 84.5887 72.0833 84.0006 73.3226 83.3325C74.5619 82.6644 76.1428 82.2489 77.6969 81.6975C81.1513 80.2329 84.7095 78.9509 88.3513 77.8587C90.3541 77.2656 92.4227 76.6204 94.619 75.9787L97.8816 75.0152L101.362 74.1927C106.23 73.0033 111.036 71.7584 116.244 70.8755C121.451 69.9926 126.766 68.8156 132.286 68.1034L140.51 66.8175L148.916 65.8065C154.432 65.2022 160.071 64.7094 165.649 64.1608C171.227 63.6123 176.666 63.33 181.982 62.9363C192.547 62.255 202.494 61.8539 210.965 61.6282C227.971 61.1784 239.265 61.4355 239.265 61.4355L239.222 58.4363Z" fill="#704021" fill-opacity="0.5"/>
<path d="M216.87 59.252C200.707 51.4708 183.959 44.5943 166.732 38.6668C163.487 37.524 160.205 36.5152 157.05 35.51C153.896 34.5047 150.607 33.6579 147.387 32.7048C144.167 31.7518 141.185 31.2375 138.306 30.537C135.427 29.8364 132.63 29.4893 130.095 28.9873C127.56 28.4853 125.135 28.4184 122.975 28.1428C121.159 27.9237 119.33 27.8011 117.496 27.7758L112.742 27.6719L117.49 27.9376C119.316 27.988 121.135 28.1556 122.931 28.4388C124.993 28.7927 127.383 28.9395 129.914 29.5495C132.445 30.1594 135.239 30.5605 138.052 31.3133C140.865 32.066 143.905 32.744 146.932 33.7457C149.959 34.7474 153.152 35.5647 156.397 36.7074C159.642 37.8502 162.764 38.8816 165.91 40.1026C172.272 42.3847 178.495 44.9869 184.307 47.4429C190.12 49.8988 195.42 52.3949 199.967 54.5459C209.031 58.82 214.85 61.9513 214.85 61.9513L216.87 59.252Z" fill="#704021" fill-opacity="0.5"/>
<path d="M246.353 54.0416C246.353 54.0416 240.871 50.4873 232.303 45.7677C227.987 43.434 222.95 40.7292 217.469 37.9583C211.987 35.1873 205.895 32.5348 199.831 29.9639C196.716 28.7706 193.636 27.4973 190.582 26.3598C187.528 25.2223 184.442 24.1108 181.413 23.163C178.384 22.2153 175.546 21.2727 172.731 20.5739C169.916 19.8752 167.295 19.1278 164.825 18.5736L158.045 17.1983C156.049 16.7922 154.203 16.6334 152.774 16.405L148.136 15.791L152.737 16.5389C154.163 16.8213 155.976 17.0063 158.03 17.5761L164.771 19.1393C167.175 19.7457 169.669 20.4898 172.542 21.3522C175.414 22.2146 178.089 23.2336 181.054 24.1796C184.019 25.1256 186.97 26.4493 189.96 27.5851C192.95 28.7208 195.962 30.1002 199.009 31.3996C204.939 34.1289 210.832 36.9923 216.181 39.8677C221.531 42.743 226.469 45.5259 230.654 47.9641C238.957 52.8925 244.15 56.5197 244.15 56.5197L246.353 54.0416Z" fill="#704021" fill-opacity="0.5"/>
<path d="M165.384 62.7498C154.606 58.1642 143.357 54.4188 131.775 51.5601C129.625 51.0147 127.373 50.6016 125.219 50.1641C123.064 49.7266 120.904 49.4509 118.842 49.097C116.78 48.743 114.676 48.6312 112.923 48.5559C111.169 48.4805 109.161 48.3981 107.471 48.3246C105.781 48.251 104.209 48.4508 102.867 48.4678C101.682 48.5291 100.503 48.6591 99.3393 48.8568L96.2871 49.3398L99.3683 48.9386C100.519 48.7449 101.688 48.6415 102.861 48.6297C104.234 48.6405 105.804 48.4946 107.461 48.5943C109.117 48.694 110.968 48.745 112.908 48.9335C114.849 49.122 116.818 49.3925 118.88 49.7464C120.942 50.1003 123.07 50.402 125.22 50.9475C127.371 51.4929 129.527 51.8763 131.676 52.4757C139.504 54.5736 147.162 57.1034 154.599 60.0487C160.733 62.4595 164.621 64.2952 164.621 64.2952L165.384 62.7498Z" fill="#704021" fill-opacity="0.5"/>
<path d="M209.853 35.0476C209.724 34.3716 209.525 33.7064 209.26 33.0596C209.06 32.4329 208.672 31.747 208.32 30.927C207.904 30.0134 207.416 29.1246 206.858 28.2668L204.997 25.1905L202.505 21.9347C201.67 20.766 200.754 19.6403 199.761 18.5639L196.729 15.2122C194.709 12.9418 192.327 10.9584 190.264 8.98389C189.184 8.0088 188.135 7.06157 187.178 6.19792L184.401 3.69057L178.427 -1.20061L184.135 3.95344L186.882 6.43291C187.974 7.30922 189.005 8.23951 189.967 9.21888C192.096 11.1412 194.38 13.2027 196.138 15.628L198.977 19.0285C199.87 20.0816 200.692 21.1774 201.436 22.3104L203.83 25.6444L205.533 28.6894C206.02 29.5332 206.445 30.4019 206.805 31.2904C207.12 31.9572 207.382 32.6411 207.588 33.3376C207.96 34.4552 208.094 35.1342 208.094 35.1342L209.853 35.0476Z" fill="#704021" fill-opacity="0.5"/>
<path d="M241.912 53.3247C241.984 53.2787 242.051 53.2262 242.11 53.1681C242.289 52.9577 242.427 52.7244 242.519 52.4772C242.844 51.7485 242.973 50.9676 242.895 50.1916C242.852 49.0638 242.616 47.9474 242.193 46.8772C241.735 45.5508 241.166 44.2533 240.491 42.9948C239.657 41.5076 238.732 40.0579 237.721 38.6511C236.662 37.1364 235.508 35.5921 234.227 34.0442C231.56 30.7826 228.697 27.6387 225.65 24.6247C222.706 21.4645 219.402 18.5375 216.479 15.6749L208.148 8.15289L199.737 1.06061L207.852 8.38771C210.289 10.5886 213.159 13.1795 216.018 16.0403C218.878 18.901 221.926 21.8212 224.96 25.1189C227.994 28.4167 230.717 31.4896 233.117 34.6618C234.327 36.1346 235.44 37.6621 236.453 39.2373C237.545 40.7259 238.254 42.204 239.034 43.5219C239.692 44.7862 240.26 46.0826 240.736 47.4041C241.085 48.3636 241.272 49.3598 241.292 50.3635C241.32 50.9491 241.211 51.5337 240.97 52.0833C240.867 52.1942 240.745 52.291 240.608 52.3704L241.912 53.3247Z" fill="#704021" fill-opacity="0.5"/>
</svg>
