<svg width="382" height="396" viewBox="0 0 382 396" fill="none" xmlns="http://www.w3.org/2000/svg">
<path d="M55.8554 294.945C56.0505 240.904 108.719 292.533 108.719 292.533C105.203 254.919 134.262 258.292 134.262 258.292C110.718 173.608 138.76 203.043 138.76 203.043C140.895 190.104 165.605 218.081 165.605 218.081C170.31 210.883 189.836 225.509 189.836 225.509C170.135 203.411 209.547 208.896 209.547 208.896C212.39 204.547 229.68 210.341 229.68 210.341C229.68 210.341 216.147 198.799 218.956 194.501C218.956 194.501 195.455 164.674 225.741 170.578C225.741 170.578 202.687 161.35 207.391 154.153C207.391 154.153 169.155 146.868 180.547 139.115C180.547 139.115 139.403 129.723 231.328 109.793C231.328 109.793 214.773 87.6128 252.243 72.9588C252.243 72.9588 178.661 53.8628 229.992 28.5367C229.992 28.5367 169.148 44.2319 168.68 37.2094C170.52 26.795 173.602 16.5624 177.866 6.71059C177.866 6.71059 144.945 18.382 144.139 9.94126C144.139 9.94126 120.622 24.4226 119.87 7.40808C119.87 7.40808 61.6532 59.6053 69.8755 33.4832C69.8755 33.4832 33.5017 81.3918 33.2318 100.292C15.3227 109.311 -13.6645 161.289 -13.6645 161.289C7.51718 142.427 -15.4212 214.387 -15.4212 214.387C1.31178 207.167 -1.73761 233.115 -1.73761 233.115C6.71325 229.859 10.7861 262.323 10.7861 262.323C18.248 254.241 26.6203 246.95 35.7414 240.59C42.6785 237.715 55.8554 294.945 55.8554 294.945Z" fill="#C98133" fill-opacity="0.5"/>
<path d="M34.1935 98.7139L213.995 201.554L32.1353 101.863L34.1935 98.7139Z" fill="#704021" fill-opacity="0.5"/>
<path d="M174.302 178.978C174.406 180.087 174.579 181.187 174.819 182.272C175.063 183.296 175.157 184.441 175.541 185.681L176.544 189.521C177.182 192.2 178.39 194.652 178.975 196.55L180.216 199.704C180.216 199.704 179.612 198.478 178.858 196.621C177.886 194.39 177.031 192.111 176.297 189.792L175.074 185.966C174.727 184.844 174.44 183.703 174.216 182.549C173.923 181.466 173.705 180.363 173.564 179.247L174.302 178.978Z" fill="#704021" fill-opacity="0.5"/>
<path d="M140.732 159.83C140.746 160.475 140.794 161.118 140.879 161.755L141.352 163.933C141.591 164.749 141.732 165.716 142.112 166.748C142.491 167.78 142.87 168.812 143.287 170.001C143.704 171.191 144.322 172.288 144.893 173.564C145.437 174.835 146.059 176.073 146.756 177.27L148.974 180.971C149.675 182.246 150.472 183.469 151.36 184.63L153.774 188.03C154.611 189.114 155.364 190.219 156.132 191.195L158.461 193.866L163.26 199.422L158.279 194.037C157.465 193.239 156.684 192.392 155.833 191.437C154.981 190.482 154.196 189.428 153.326 188.394L150.659 185.057C149.756 183.907 148.92 182.71 148.156 181.469C147.333 180.257 146.542 178.995 145.77 177.811C145.003 176.62 144.308 175.387 143.688 174.118C143.084 172.892 142.415 171.766 141.914 170.598L140.584 167.258C140.203 166.317 139.898 165.347 139.671 164.356C139.411 163.602 139.212 162.829 139.075 162.042C138.929 161.38 138.829 160.708 138.774 160.03L140.732 159.83Z" fill="#704021" fill-opacity="0.5"/>
<path d="M114.414 144.952C114.414 144.952 115.056 147.838 116.237 152.05L118.505 159.33L121.101 167.612C122.112 170.364 123.124 173.116 124.13 175.66C125.137 178.204 126.19 180.57 127.117 182.591L130.417 189.152L126.832 182.705L123.56 175.887C122.437 173.414 121.374 170.633 120.194 167.924C119.015 165.215 118.087 162.442 117.197 159.826L114.832 152.697C113.464 148.448 112.499 145.517 112.499 145.517L114.414 144.952Z" fill="#704021" fill-opacity="0.5"/>
<path d="M34.97 99.3541C34.97 99.3541 55.0431 137.435 72.7898 176.602C81.7215 196.151 90.018 216.026 94.993 231.309C96.2671 235.164 97.2278 238.638 98.1323 241.876C98.8431 244.567 99.4036 247.297 99.8117 250.055C100.123 251.854 100.317 253.673 100.395 255.504L100.458 257.451L100.344 255.475C100.238 253.665 100.004 251.868 99.6435 250.098C99.1837 247.791 98.5273 245.034 97.5109 242.074C96.4945 239.115 95.4774 235.404 94.1379 231.649C88.8266 216.451 80.0957 196.81 70.6969 177.547C52.0814 138.849 31.1585 101.316 31.1585 101.316L34.97 99.3541Z" fill="#704021" fill-opacity="0.5"/>
<path d="M77.6784 188.148C77.6784 188.148 75.8162 190.997 72.9738 195.346C71.5689 197.495 70.3468 200.225 68.8397 203.068C67.3326 205.911 65.9333 209.019 64.7723 212.193L62.9535 216.91C62.3331 218.434 61.8101 219.988 61.3872 221.564C60.4536 224.301 59.6713 227.076 59.0434 229.879L57.3582 238.153L58.7206 229.835C59.0177 227.338 60.0856 224.522 60.7747 221.426C61.2128 219.895 61.5807 218.258 62.1869 216.686L63.9028 211.911C64.961 208.679 66.4961 205.579 67.6947 202.563C68.8932 199.547 70.1903 197.133 71.6043 194.647C73.9512 190.089 75.8787 187.14 75.8787 187.14L77.6784 188.148Z" fill="#704021" fill-opacity="0.5"/>
<path d="M91.7796 221.929C92.2084 221.84 92.643 221.786 93.0785 221.769C93.5701 221.714 94.0645 221.716 94.5506 221.774C95.1791 221.763 95.804 221.816 96.4151 221.931C96.9808 222.248 97.8268 222.244 98.5419 222.439C99.257 222.635 99.8788 223.188 100.827 223.242C101.597 223.603 102.337 224.017 103.039 224.481L105.353 225.777C106.779 226.716 108.106 227.78 109.318 228.954C109.987 229.329 110.707 229.732 110.997 230.578C111.287 231.423 111.919 231.64 112.302 232.128L115.085 235.394L112.237 232.228C111.671 231.911 111.334 231.244 110.848 230.699C110.361 230.153 109.674 229.7 109.104 229.175C107.846 228.054 106.498 227.026 105.073 226.098L102.81 224.83C102.16 224.362 101.452 223.965 100.702 223.649C99.9729 223.355 99.227 223.097 98.4673 222.876L96.3784 222.525C95.8031 222.41 95.2095 222.377 94.6166 222.425C94.1758 222.367 93.726 222.368 93.2801 222.428C92.8757 222.455 92.474 222.528 92.0839 222.645L91.7796 221.929Z" fill="#704021" fill-opacity="0.5"/>
<path d="M81.0602 193.937C83.1083 194.334 85.13 194.829 87.1176 195.418C91.4943 196.648 95.7015 198.318 99.6687 200.401C101.8 201.521 103.832 202.797 105.747 204.215C106.724 204.763 107.486 205.531 108.248 206.3C109.011 207.068 109.684 207.65 110.259 208.382C111.224 209.435 112.078 210.576 112.809 211.791L113.637 213.211C113.637 213.211 113.338 212.701 112.743 211.891C111.941 210.695 111.032 209.569 110.026 208.524C109.306 208.121 108.66 207.282 107.917 206.592C107.173 205.902 106.066 205.555 105.317 204.658C103.361 203.39 101.317 202.245 99.1974 201.229C95.1583 199.41 90.9333 197.958 86.5767 196.891C82.9872 196.041 80.3886 195.609 80.3886 195.609L81.0602 193.937Z" fill="#704021" fill-opacity="0.5"/>
<path d="M70.4819 172.715C70.4819 172.715 71.9072 172.899 73.8796 173.321C76.3275 173.842 78.733 174.505 81.0823 175.308C82.2137 175.942 83.6062 176.175 84.7189 176.73C85.7562 177.219 86.753 177.777 87.7017 178.401C89.3987 179.352 90.5815 180.015 90.5815 180.015C90.5815 180.015 89.4502 179.381 87.5057 178.701C86.6314 178.212 85.4583 177.964 84.3318 177.538C83.2052 177.112 81.8451 176.828 80.5504 176.444C78.1912 175.853 75.7911 175.398 73.3623 175.08C71.3434 174.837 70.0396 174.79 70.0396 174.79L70.4819 172.715Z" fill="#704021" fill-opacity="0.5"/>
<path d="M35.1523 99.9347C35.1523 99.9347 35.4766 102.233 35.7416 106.342C35.874 108.397 36.1517 110.874 36.3314 113.501L36.6569 123.107C36.7391 126.635 36.5225 130.406 36.3108 134.385C36.099 138.363 36.3172 142.651 35.8441 147.029L34.7379 160.544C34.5406 165.146 33.6845 169.787 33.0153 174.466L30.9704 188.343C30.231 192.913 29.0476 197.303 28.1679 201.659L25.4303 214.124C24.634 217.851 23.6069 221.539 22.3548 225.17L15.4896 247.819L21.7941 225.061C22.9053 221.402 23.8241 217.7 24.5469 213.97L26.8642 201.611C27.6598 197.277 28.7402 192.829 29.344 188.251L31.0013 174.43C31.535 169.744 32.2557 165.095 32.3688 160.515L32.9889 147.205C33.378 142.848 33.1783 138.639 33.2031 134.624C33.228 130.609 33.2764 126.881 33.0259 123.394L32.2612 113.816C32.1608 110.96 31.7339 108.604 31.5687 106.599C31.2384 102.59 30.83 100.313 30.83 100.313L35.1523 99.9347Z" fill="#704021" fill-opacity="0.5"/>
<path d="M26.7625 208.109C29.5111 210.235 32.0765 212.562 34.4365 215.071C35.2878 216.026 36.0736 217.081 36.9061 217.957C37.7386 218.833 38.1694 219.894 38.6794 220.726C39.1895 221.558 40.032 223.6 40.032 223.6L38.5627 220.797L36.6398 218.149C35.8073 217.273 34.9561 216.318 34.0721 215.413C31.6116 213.031 28.9711 210.822 26.1695 208.801L26.7625 208.109Z" fill="#704021" fill-opacity="0.5"/>
<path d="M34.2084 157.378L32.5508 158.84L28.3247 162.618L22.3615 168.086C20.2089 170.09 17.963 172.451 15.8291 174.533L12.4719 177.842C11.3765 178.871 10.3398 179.954 9.36684 181.087L4.07723 187.138L-1.11417 193.038L3.85276 186.944L8.88541 180.749C9.82867 179.579 10.842 178.459 11.9201 177.396L15.1044 173.922C17.2849 171.661 19.2974 169.442 21.4452 167.231L27.2163 161.519C28.8692 159.85 30.2933 158.531 31.3206 157.604L32.927 156.114L34.2084 157.378Z" fill="#704021" fill-opacity="0.5"/>
<path d="M173.687 178.632C174.826 178.2 175.994 177.85 177.182 177.585C178.242 177.36 179.518 176.914 180.849 176.704L185.078 175.931C187.638 175.458 190.216 175.101 192.802 174.864L196.381 174.547L192.788 174.992C190.615 175.414 187.741 175.511 184.934 176.26L180.794 177.219C179.43 177.479 178.29 177.933 177.197 178.208C176.032 178.518 174.887 178.904 173.772 179.363L173.687 178.632Z" fill="#704021" fill-opacity="0.5"/>
<path d="M139.393 159.081C140.067 158.811 140.757 158.581 141.458 158.394C142.274 158.141 143.107 157.946 143.949 157.809C145.002 157.535 146.071 157.336 147.149 157.212L150.962 156.753L155.153 156.574C156.656 156.494 158.158 156.492 159.653 156.569L164.261 156.828C165.802 156.88 167.336 157.009 168.855 157.217L173.286 157.855C174.678 158.089 176.085 158.194 177.361 158.499C178.637 158.804 179.843 159.002 180.983 159.299L188.447 160.886L180.904 159.528C179.75 159.359 178.576 159.112 177.268 158.857C175.959 158.602 174.571 158.575 173.146 158.391L168.772 157.989C167.249 157.8 165.709 157.713 164.164 157.73L159.593 157.628C158.103 157.544 156.603 157.796 155.182 157.82C153.762 157.843 152.327 157.996 151.028 158.156C149.729 158.316 148.5 158.583 147.37 158.701C146.239 158.819 145.216 159.202 144.323 159.385L142.02 160.006C141.371 160.233 140.733 160.491 140.11 160.78L139.393 159.081Z" fill="#704021" fill-opacity="0.5"/>
<path d="M113.181 144.259C113.181 144.259 116.227 143.576 121.133 142.841L129.053 141.474C131.968 140.99 135.09 140.622 138.192 140.175L147.374 139.241L155.416 138.761L163.248 138.71L155.439 139.047C153.075 139.225 150.341 139.538 147.421 139.814C144.5 140.09 141.384 140.665 138.314 141.063L129.185 142.777L121.167 144.295C116.556 145.33 113.528 146.092 113.528 146.092L113.181 144.259Z" fill="#704021" fill-opacity="0.5"/>
<path d="M33.2723 98.4034C33.2723 98.4034 78.8949 98.149 124.562 95.4615C147.389 94.1821 170.233 92.2301 187.208 89.5846C191.456 88.891 195.193 88.1169 198.781 87.464C202.37 86.811 205.159 85.9836 207.448 85.4907C209.31 84.9651 211.137 84.3235 212.919 83.5704L214.862 82.7471L212.97 83.5992C211.183 84.3844 209.351 85.0686 207.486 85.6481C205.084 86.4198 202.16 87.2397 198.847 88.1155C195.535 88.9913 191.591 89.6501 187.312 90.3937C170.379 93.4043 147.511 95.8215 124.662 97.566C78.9484 101.184 33.196 102.389 33.196 102.389L33.2723 98.4034Z" fill="#704021" fill-opacity="0.5"/>
<path d="M136.311 95.0081C136.311 95.0081 138.238 92.0593 141.511 88.02C142.949 85.8208 145.148 83.6385 147.272 81.1411C149.396 78.6437 151.857 76.0616 154.458 73.6947L158.231 70.0724C159.454 68.8457 160.85 67.7843 162.111 66.7152C164.703 64.6846 166.921 62.581 169.205 61.129L176.533 56.1523L169.397 61.3731C167.006 63.1883 164.713 65.1176 162.527 67.1531C161.216 68.2311 159.972 69.3812 158.801 70.5969L155.131 74.2767C152.6 76.7512 150.481 79.4563 148.254 81.8961C146.027 84.3358 144.421 86.5774 142.783 88.869C139.716 93.0235 138.111 96.0165 138.111 96.0165L136.311 95.0081Z" fill="#704021" fill-opacity="0.5"/>
<path d="M177.524 91.3964C177.593 91.7708 177.709 92.1341 177.871 92.4784C177.996 92.8823 178.206 93.2553 178.488 93.5757C178.717 94.0845 179.024 94.5556 179.4 94.9744L180.705 96.5249C181.27 97.0452 181.863 97.5371 182.482 97.9984C183.133 98.4672 183.84 98.8633 184.591 99.1794L186.854 100.447C188.403 101.185 190.012 101.813 191.669 102.325C192.4 102.625 193.157 102.867 193.935 103.048C194.552 103.394 195.38 103.311 196.043 103.478L200.395 104.345L195.978 103.578L193.889 103.227C193.272 102.881 192.355 102.778 191.556 102.603C189.87 102.154 188.237 101.559 186.676 100.826L184.362 99.5292C183.592 99.1682 182.853 98.7543 182.151 98.2904C181.431 97.8871 180.711 97.4839 180.29 96.8383C179.869 96.1927 179.317 95.747 178.849 95.2802C178.456 94.8323 178.116 94.3442 177.834 93.8238C177.553 93.4522 177.322 93.0476 177.146 92.619C176.961 92.2538 176.81 91.8725 176.697 91.4795L177.524 91.3964Z" fill="#704021" fill-opacity="0.5"/>
<path d="M145.498 94.2823C145.498 94.2823 147.013 96.1556 149.628 98.7126C152.765 101.885 156.237 104.745 159.994 107.251C162.002 108.581 164.116 109.765 166.32 110.795C168.253 111.686 170.274 112.406 172.359 112.949C173.131 113.381 174.144 113.334 174.892 113.48C175.64 113.626 176.35 113.614 176.911 113.723L178.64 113.873L176.878 113.774C176.196 113.801 175.515 113.762 174.846 113.659C174.229 113.313 173.233 113.439 172.298 113.256C170.156 112.773 168.064 112.127 166.044 111.323C163.747 110.382 161.533 109.279 159.42 108.022C155.473 105.63 151.789 102.881 148.418 99.8105C145.687 97.3246 144.19 95.5302 144.19 95.5302L145.498 94.2823Z" fill="#704021" fill-opacity="0.5"/>
<path d="M121.735 96.1314C122.248 97.032 122.839 97.8885 123.503 98.6925C124.857 100.585 126.369 102.369 128.026 104.026C128.943 104.881 129.794 105.836 130.776 106.591C131.587 107.334 132.451 108.023 133.362 108.654C135.059 109.605 135.994 110.538 135.994 110.538C135.994 110.538 134.863 109.904 133.114 108.925C132.24 108.435 131.263 107.888 130.183 107.283C129.122 106.556 128.115 105.764 127.167 104.911C125.323 103.361 123.6 101.688 122.009 99.904C120.69 98.4823 119.904 97.4274 119.904 97.4274L121.735 96.1314Z" fill="#704021" fill-opacity="0.5"/>
<path d="M32.4277 98.4069C32.4277 98.4069 34.7964 97.6851 38.7858 96.0961C40.7479 95.3515 43.2334 94.5588 46.0129 93.3161L55.5334 89.4993C58.9856 88.0872 62.349 86.4888 66.3614 84.4346C70.3739 82.3804 74.3117 80.7624 78.2679 78.4718L90.7163 71.7883C95.0464 69.5706 99.1609 66.8226 103.365 64.2609L116.106 56.376C120.207 53.7567 123.962 50.8071 127.708 48.1937L138.459 40.5595C141.699 38.2433 144.815 35.772 147.794 33.1563L166.646 17.4277L148.159 33.5656C145.266 36.2769 142.212 38.8305 139.015 41.2127L128.358 49.241C124.598 51.9831 120.946 54.9903 116.916 57.7172L104.586 65.8326C100.419 68.5518 96.3749 71.4075 92.0636 73.704L79.6439 80.8816C75.6738 83.3009 71.5721 85.1685 67.7279 87.1804C63.8836 89.1922 60.3896 90.9907 57.1291 92.6467L47.7865 96.8362C45.0585 98.1077 42.5592 99.0293 40.6625 99.6739C36.6076 101.363 34.2578 102.163 34.2578 102.163L32.4277 98.4069Z" fill="#704021" fill-opacity="0.5"/>
<path d="M134.031 43.6791C137.195 45.1355 140.481 46.36 143.861 47.3423C145.137 47.6474 146.446 47.9024 147.637 48.2286C148.829 48.5549 150.03 48.5449 151.03 48.6271L154.414 48.6104L151.021 48.9636C150.021 48.8814 148.802 48.8125 147.549 48.7938C146.297 48.7751 144.918 48.4125 143.577 48.2074C140.043 47.5045 136.582 46.5471 133.223 45.3438L134.031 43.6791Z" fill="#704021" fill-opacity="0.5"/>
<path d="M86.539 74.0934L87.2196 72.0846C87.6298 70.8122 88.2313 69.0323 89.0614 66.9025L91.8501 59.5194C92.8714 56.8821 94.1914 54.0024 95.3107 51.2152L97.1251 47.0419C97.6573 45.6494 98.2693 44.2825 98.9584 42.9475L102.551 35.9466L106.078 29.0455L102.841 36.0405L99.5051 43.1857C98.8724 44.5093 98.3166 45.862 97.8402 47.2377L96.2313 51.5261C95.1635 54.3422 94.0443 57.1294 93.0605 59.9243L90.6273 67.3016C89.9327 69.4391 89.2987 71.269 88.9725 72.5203L88.3432 74.5577L86.539 74.0934Z" fill="#704021" fill-opacity="0.5"/>
<path d="M-2.2308 85.0024C-2.2308 85.0024 12.9042 89.7935 27.2975 96.1494C30.8035 97.772 34.361 99.4235 37.6147 101.11C40.6294 102.584 43.5481 104.219 46.3572 106.007C47.4653 106.726 48.5283 107.504 49.5414 108.337C50.3511 108.946 51.1179 109.604 51.8374 110.306C52.9319 111.534 53.624 112.195 53.624 112.195C53.624 112.195 52.8012 111.734 51.5899 110.577C50.7731 110.004 49.8945 109.512 48.9671 109.108C47.8864 108.366 46.7334 107.72 45.5217 107.178C42.6159 105.682 39.6077 104.362 36.5138 103.224C33.1342 101.946 29.4508 100.702 25.7022 99.5577C18.2889 97.2485 10.7171 95.3968 4.96823 94.0883C-0.780615 92.7798 -4.51953 92.0511 -4.51953 92.0511L-2.2308 85.0024Z" fill="#704021" fill-opacity="0.5"/>
</svg>
