<svg width="24" height="24" viewBox="0 0 24 24" fill="none" >
<path fill-rule="evenodd" clip-rule="evenodd" d="M4.8002 3.19995C4.37585 3.19995 3.96888 3.36852 3.66882 3.66858C3.36877 3.96864 3.2002 4.37561 3.2002 4.79995V19.2C3.2002 19.6243 3.36877 20.0313 3.66882 20.3313C3.96888 20.6314 4.37585 20.8 4.8002 20.8H19.2002C19.6245 20.8 20.0315 20.6314 20.3316 20.3313C20.6316 20.0313 20.8002 19.6243 20.8002 19.2V13.6C20.8002 13.3878 20.7159 13.1843 20.5659 13.0343C20.4159 12.8842 20.2124 12.8 20.0002 12.8C19.788 12.8 19.5845 12.8842 19.4345 13.0343C19.2845 13.1843 19.2002 13.3878 19.2002 13.6V19.2H4.8002V4.79995H10.4002C10.6124 4.79995 10.8159 4.71567 10.9659 4.56564C11.1159 4.41561 11.2002 4.21213 11.2002 3.99995C11.2002 3.78778 11.1159 3.5843 10.9659 3.43427C10.8159 3.28424 10.6124 3.19995 10.4002 3.19995H4.8002ZM20.5666 3.43355C20.7154 3.5827 20.7993 3.7845 20.8002 3.99515V8.79995C20.8002 9.01213 20.7159 9.21561 20.5659 9.36564C20.4159 9.51567 20.2124 9.59995 20.0002 9.59995C19.788 9.59995 19.5845 9.51567 19.4345 9.36564C19.2845 9.21561 19.2002 9.01213 19.2002 8.79995V5.93115L10.9666 14.1664C10.8922 14.2407 10.8039 14.2997 10.7067 14.34C10.6095 14.3802 10.5054 14.401 10.4002 14.401C10.295 14.401 10.1908 14.3802 10.0937 14.34C9.99648 14.2997 9.90818 14.2407 9.8338 14.1664C9.75941 14.092 9.70041 14.0037 9.66016 13.9065C9.6199 13.8093 9.59918 13.7051 9.59918 13.6C9.59918 13.4948 9.6199 13.3906 9.66016 13.2934C9.70041 13.1962 9.75941 13.1079 9.8338 13.0336L18.069 4.79995H15.2002C14.988 4.79995 14.7845 4.71567 14.6345 4.56564C14.4845 4.41561 14.4002 4.21213 14.4002 3.99995C14.4002 3.78778 14.4845 3.5843 14.6345 3.43427C14.7845 3.28424 14.988 3.19995 15.2002 3.19995H20.0002C20.1053 3.19968 20.2095 3.22017 20.3067 3.26026C20.4039 3.30035 20.4922 3.35924 20.5666 3.43355Z" fill="black"/>
</svg>
