<svg width="23" height="27" viewBox="0 0 23 27" fill="none" xmlns="http://www.w3.org/2000/svg">
<g clip-path="url(#clip0_153_28)">
<path d="M8.31882 21.2471C3.69726 22.8933 3.69726 18.5033 1.84863 17.9546M14.789 24.5396V20.2922C14.8237 19.7689 14.7641 19.2428 14.6143 18.7489C14.4645 18.255 14.2279 17.8047 13.9201 17.4278C16.8225 17.0436 19.8727 15.7376 19.8727 9.74527C19.8725 8.21297 19.3761 6.73943 18.4862 5.62964C18.9076 4.28905 18.8778 2.80726 18.4031 1.49207C18.4031 1.49207 17.3124 1.10794 14.789 3.11637C12.6705 2.43462 10.4373 2.43462 8.31882 3.11637C5.79544 1.10794 4.70476 1.49207 4.70476 1.49207C4.23001 2.80726 4.20022 4.28905 4.62157 5.62964C3.7251 6.74767 3.22819 8.23452 3.2351 9.77819C3.2351 15.7266 6.28533 17.0327 9.18767 17.4607C8.88357 17.8338 8.64904 18.2788 8.49934 18.7666C8.34965 19.2545 8.28814 19.7743 8.31882 20.2922V24.5396" stroke="#F5F5F5" stroke-width="4" stroke-linecap="round" stroke-linejoin="round"/>
</g>
<defs>
<clipPath id="clip0_153_28">
<rect width="22.1835" height="26.34" fill="white" transform="translate(0 0.394569)"/>
</clipPath>
</defs>
</svg>
