<?xml version="1.0" encoding="UTF-8"?><svg id="Laag_1" xmlns="http://www.w3.org/2000/svg" viewBox="0 0 85.67 19.61"><defs><style>.cls-1{stroke:#000;stroke-linecap:round;stroke-linejoin:round;stroke-width:2px;}</style></defs><path class="cls-1" d="M5.72,1.25c2.21,0,3.83,.44,4.85,1.32s1.53,2.14,1.53,3.76c0,.73-.12,1.43-.35,2.09s-.62,1.24-1.14,1.75-1.22,.9-2.08,1.2-1.91,.44-3.16,.44h-1.96v6.57H1V1.25H5.72Zm-.19,2.02H3.4v6.52h1.7c.99,0,1.82-.11,2.5-.33s1.18-.58,1.52-1.07,.52-1.14,.52-1.95c0-1.06-.33-1.86-1-2.38s-1.7-.79-3.11-.79Z"/><path class="cls-1" d="M28.86,18.38h-2.4v-7.91h-8.45v7.91h-2.4V1.25h2.4v7.15h8.45V1.25h2.4V18.38Z"/><path class="cls-1" d="M33.46,18.38V1.25h2.4V18.38h-2.4Z"/><path class="cls-1" d="M40.48,18.38V1.25h2.4v15.05h7.44v2.09h-9.84Z"/><path class="cls-1" d="M53.27,18.38V1.25h2.4V18.38h-2.4Z"/><path class="cls-1" d="M65.01,1.25c2.21,0,3.83,.44,4.85,1.32s1.53,2.14,1.53,3.76c0,.73-.12,1.43-.35,2.09s-.62,1.24-1.14,1.75-1.22,.9-2.08,1.2-1.91,.44-3.16,.44h-1.96v6.57h-2.4V1.25h4.72Zm-.19,2.02h-2.13v6.52h1.7c.99,0,1.82-.11,2.5-.33s1.18-.58,1.52-1.07,.52-1.14,.52-1.95c0-1.06-.33-1.86-1-2.38s-1.7-.79-3.11-.79Z"/><path class="cls-1" d="M84.67,13.77c0,1.02-.25,1.88-.76,2.61s-1.21,1.28-2.13,1.66-2,.57-3.26,.57c-.63,0-1.24-.03-1.81-.1s-1.11-.16-1.6-.29-.94-.28-1.34-.47v-2.27c.65,.27,1.4,.51,2.25,.74s1.73,.35,2.64,.35c.79,0,1.45-.11,1.99-.32s.94-.52,1.21-.91,.41-.86,.41-1.41-.13-1.01-.4-1.38-.69-.71-1.26-1.03-1.33-.64-2.26-1c-.65-.23-1.24-.5-1.77-.8s-.99-.65-1.38-1.04-.69-.85-.9-1.38-.32-1.13-.32-1.82c0-.95,.23-1.75,.7-2.43s1.12-1.19,1.95-1.54,1.8-.53,2.91-.53c.91,0,1.75,.09,2.54,.27s1.53,.43,2.24,.74l-.76,1.99c-.66-.27-1.33-.5-2-.67s-1.37-.26-2.09-.26c-.66,0-1.22,.1-1.68,.29s-.8,.47-1.04,.83-.36,.79-.36,1.28c0,.55,.12,1.02,.38,1.38s.64,.7,1.18,1,1.24,.61,2.11,.95c.98,.38,1.81,.77,2.49,1.2s1.21,.93,1.56,1.52,.54,1.34,.54,2.25Z"/></svg>