<svg width="76" height="76" viewBox="0 0 76 76" fill="none" xmlns="http://www.w3.org/2000/svg">
<path fill-rule="evenodd" clip-rule="evenodd" d="M44.7055 38.0278C45.3886 37.2508 46.0006 36.3976 46.5309 35.4614C48.3924 32.1763 47.2749 27.9849 44.7721 24.9825C42.2704 21.9811 38.4341 20.2311 35.1363 21.5773C33.2504 22.3467 32.102 23.4393 31.4797 24.6719C30.861 25.8982 30.7619 27.2875 31.0524 28.7012C31.8638 32.6409 35.7537 36.7986 38.3441 37.7893C39.5427 38.2469 40.7841 38.6158 42.0565 38.9046C38.7833 41.5667 34.3379 42.8782 29.5508 43.3563C19.1466 44.3957 7.10424 41.4519 1.24102 39.0769C0.92602 38.9493 0.529272 39.1249 0.353661 39.4684C0.178052 39.8119 0.29058 40.1941 0.605585 40.3217C6.58492 42.7437 18.8688 45.7369 29.479 44.6766C34.9598 44.1294 39.9914 42.4889 43.5527 39.2077C53.2761 40.9324 64.7328 38.4933 74.4428 36.5023C74.8022 36.4299 75.0802 36.0777 75.0623 35.7184C75.0432 35.3604 74.7377 35.1285 74.3771 35.2022C65.0639 37.1112 54.1067 39.4913 44.7055 38.0278ZM43.2929 37.776C44.1051 36.9424 44.8225 35.9994 45.4233 34.937C47.0348 32.094 45.8904 28.5241 43.7237 25.9252C42.395 24.3327 40.6639 23.1005 38.8559 22.6343C37.7195 22.3407 36.5558 22.3514 35.4557 22.801C34.012 23.3901 33.0997 24.184 32.6249 25.1271C32.1454 26.0754 32.1075 27.1502 32.3338 28.2444C33.0725 31.8354 36.6018 35.635 38.9599 36.5365C40.3506 37.0686 41.799 37.475 43.2929 37.776Z" fill="#C91833"/>
<line x1="73.7494" y1="36.2214" x2="61.7087" y2="44.7637" stroke="#C91833" stroke-width="2" stroke-linecap="round"/>
<line x1="74.0246" y1="36.1825" x2="59.8629" y2="32.4579" stroke="#C91833" stroke-width="2" stroke-linecap="round"/>
</svg>
