<svg width="75" height="75" viewBox="0 0 75 75" fill="none" xmlns="http://www.w3.org/2000/svg">
<path fill-rule="evenodd" clip-rule="evenodd" d="M30.317 37.3686C29.6612 38.1688 29.0781 39.0417 28.578 39.9936C26.8226 43.3336 28.0428 47.4474 30.6032 50.3223C33.1625 53.1963 37.01 54.7714 40.2406 53.2956C42.0879 52.4521 43.196 51.3188 43.7792 50.0688C44.359 48.8253 44.4197 47.4419 44.0938 46.0507C43.1836 42.1738 39.218 38.2106 36.6251 37.3365C35.4254 36.9329 34.1857 36.6191 32.9174 36.3862C36.0881 33.605 40.4563 32.1151 45.1856 31.4382C55.4641 29.9666 67.4729 32.3802 73.3452 34.4902C73.6607 34.6036 74.049 34.4125 74.2137 34.064C74.3784 33.7156 74.2566 33.3409 73.9411 33.2275C67.9525 31.0758 55.7031 28.6234 45.2211 30.1245C39.8065 30.8993 34.8664 32.7406 31.4271 36.1486C21.7484 34.8473 10.465 37.7529 0.899911 40.1398C0.545858 40.2269 0.27996 40.5883 0.307394 40.9443C0.335974 41.2989 0.644879 41.5162 1.00008 41.4277C10.1743 39.139 20.9645 36.3131 30.317 37.3686ZM31.7231 37.5589C30.941 38.4208 30.2558 39.3873 29.6894 40.4674C28.1697 43.3579 29.3998 46.8536 31.6163 49.3422C32.9755 50.8669 34.7237 52.0171 36.5273 52.4035C37.661 52.6469 38.8134 52.5871 39.8911 52.0942C41.3053 51.4484 42.1877 50.6217 42.6325 49.6654C43.0819 48.7037 43.0904 47.6351 42.8367 46.5583C42.008 43.0245 38.4092 39.4016 36.0489 38.6063C34.6569 38.1368 33.2111 37.7946 31.7231 37.5589Z" fill="#C91833"/>
<line x1="1" y1="-1" x2="15.7508" y2="-1" transform="matrix(0.792898 -0.609354 0.604078 0.796925 1.3941 41.6814)" stroke="#C91833" stroke-width="2" stroke-linecap="round"/>
<line x1="1" y1="-1" x2="15.4409" y2="-1" transform="matrix(0.97678 0.214244 -0.226584 0.973992 0.130432 41.0974)" stroke="#C91833" stroke-width="2" stroke-linecap="round"/>
</svg>
