<svg width="89" height="50" viewBox="0 0 89 50" fill="none" xmlns="http://www.w3.org/2000/svg">
<g clip-path="url(#clip0_9_210)">
<path class="path-1" d="M78.4731 3.36536H7.65593C3.69196 3.36536 0.478516 6.59407 0.478516 10.5769V42.3077C0.478516 46.2905 3.69196 49.5192 7.65593 49.5192H78.4731C82.4371 49.5192 85.6506 46.2905 85.6506 42.3077V10.5769C85.6506 6.59407 82.4371 3.36536 78.4731 3.36536Z" fill="#050542" stroke="white"/>
<path class="path-2" d="M3.34961 7.69225C3.34961 5.77963 4.1058 3.94535 5.45183 2.59292C6.79785 1.2405 8.62346 0.480713 10.527 0.480713H81.3442C83.2478 0.480713 85.0734 1.2405 86.4194 2.59292C87.7655 3.94535 88.5217 5.77963 88.5217 7.69225V39.423C88.5217 41.3356 87.7655 43.1699 86.4194 44.5224C85.0734 45.8748 83.2478 46.6346 81.3442 46.6346H10.527C8.62346 46.6346 6.79785 45.8748 5.45183 44.5224C4.1058 43.1699 3.34961 41.3356 3.34961 39.423V7.69225Z" fill="#050542" stroke="white"/>
<path class="path-3" d="M21.4316 31.7308H17.2256V15.3846H26.5658V18.9289H21.4306V22.0481H26.1667V25.5923H21.4316V31.7308ZM41.692 23.2116C41.692 25.1116 41.3494 26.6923 40.6642 27.952C39.9799 29.2116 39.0143 30.1577 37.7674 30.7914C36.5271 31.4173 35.0687 31.7308 33.3891 31.7308H28.275V15.3846H33.7451C35.4467 15.3846 36.8879 15.6866 38.0707 16.2904C39.2238 16.866 40.1658 17.7937 40.7618 18.9404C41.3819 20.1029 41.692 21.527 41.692 23.2116ZM37.2592 23.3673C37.2592 22.377 37.129 21.5568 36.8697 20.9077C36.618 20.252 36.2352 19.7635 35.7242 19.4433C35.2122 19.1154 34.5672 18.951 33.7892 18.951H32.5451V28.1087H33.4973C34.794 28.1087 35.7462 27.7202 36.351 26.9452C36.9568 26.1625 37.2592 24.9693 37.2592 23.3673ZM58.6977 31.7308H53.0983L47.3248 20.2145H47.2272C47.2636 20.5654 47.2961 20.9866 47.3248 21.4779C47.3535 21.9702 47.3794 22.4731 47.4014 22.9875C47.4224 23.4943 47.433 23.9529 47.433 24.3625V31.7308H43.649V15.3846H49.2283L54.9798 26.7443H55.0439C55.0193 26.331 54.9976 25.9175 54.9788 25.5039L54.9137 24.0616C54.9005 23.6328 54.8934 23.204 54.8927 22.775V15.3846H58.6977V31.7308ZM74.6449 23.2116C74.6449 25.1116 74.3023 26.6923 73.6181 27.952C72.9329 29.2116 71.9673 30.1577 70.7203 30.7914C69.481 31.4173 68.0216 31.7308 66.3421 31.7308H61.2289V15.3846H66.6991C68.3996 15.3846 69.8418 15.6866 71.0237 16.2904C72.1771 16.8659 73.1194 17.7936 73.7157 18.9404C74.3349 20.1029 74.6449 21.527 74.6449 23.2116ZM70.2122 23.3673C70.2122 22.377 70.083 21.5568 69.8236 20.9077C69.571 20.252 69.1891 19.7635 68.6772 19.4433C68.1661 19.1154 67.5202 18.951 66.7421 18.951H65.498V28.1087H66.4502C67.7479 28.1087 68.6992 27.7202 69.304 26.9452C69.9098 26.1625 70.2131 24.9702 70.2131 23.3683L70.2122 23.3673Z" fill="white"/>
</g>
<defs>
<clipPath id="clip0_9_210">
<rect width="89" height="50" fill="white"/>
</clipPath>
</defs>
</svg>
